<svg id="Layer_1" data-name="Layer 1" xmlns="http://www.w3.org/2000/svg" viewBox="0 0 628.87 629.03"><defs><style>.cls-1{fill:#444445;}.cls-2{fill:#8ec343;}</style></defs><path class="cls-1" d="M0,315.09c.62-11.93.58-22.87,1.9-33.64,1.67-13.66,4.25-27.23,6.83-40.76a149.94,149.94,0,0,1,5.33-19.94c3.35-9.87,7.07-19.63,11-29.31,2.94-7.3,6.12-14.54,9.68-21.57a222,222,0,0,1,11.17-19.46C52,140.8,58,131,65.09,122.08c8.58-10.84,18-21,27.43-31.17A188.45,188.45,0,0,1,110,74.33c7.69-6.41,15.65-12.54,23.9-18.19,9.35-6.41,19-12.39,28.81-18.12a184.17,184.17,0,0,1,19-9.32q13.47-5.93,27.22-11.25c4.79-1.84,9.83-3,14.77-4.44,5.5-1.59,11-3.3,16.53-4.63,6.21-1.49,12.49-2.77,18.8-3.84C267.35,3.12,275.76,1.8,284.2.8A132,132,0,0,1,300.35,0c14.25.08,28.51,0,42.73.75,8.26.43,16.45,2.28,24.66,3.52,2.81.42,5.64.79,8.42,1.4,8.68,1.9,17.45,3.51,26,6,8.83,2.54,17.52,5.69,26.08,9,8.93,3.5,17.76,7.28,26.4,11.43A243.54,243.54,0,0,1,494.68,56c9.88,7.34,19.84,14.63,29.1,22.7,8,7,15.24,14.86,22.5,22.64a214,214,0,0,1,16.54,19.45C570.5,131.27,578,142,584.69,153.16c6.18,10.33,11.16,21.37,16.68,32.1,6.52,12.7,10.69,26.28,14.82,39.85A229.65,229.65,0,0,1,622,249.88c1.78,9.58,2.76,19.31,4.4,28.92,2.63,15.4,2.62,30.93,2.29,46.44-.18,8-1.48,15.92-2.28,23.88-.45,4.5-.74,9-1.42,13.49-1,6.64-2.22,13.25-3.53,19.83-1,5.26-2.18,10.5-3.6,15.66-1.75,6.32-3.6,12.63-5.82,18.79-2.87,7.92-6,15.75-9.29,23.51a248.73,248.73,0,0,1-22.91,43.09q-11.52,17-24.14,33.12a177.52,177.52,0,0,1-16.36,17.69c-8.16,7.94-16.39,15.87-25.14,23.13a311.69,311.69,0,0,1-27.06,20.1c-9.47,6.26-19.42,11.84-29.4,17.28a185.45,185.45,0,0,1-20.17,9.37c-9.13,3.67-18.4,7-27.73,10.12-6.23,2.08-12.64,3.6-19,5.27q-7.77,2.05-15.6,3.85c-2.76.63-5.57,1-8.37,1.47-20.08,3-40.26,4.77-60.57,3.92-11.08-.46-22.17-1.16-33.17-2.46-8.93-1.06-17.77-3-26.59-4.88a249.7,249.7,0,0,1-24.36-6.05c-9.82-3.15-19.49-6.83-29-10.86-9.91-4.2-19.72-8.72-29.23-13.75a279.31,279.31,0,0,1-37.2-23.66c-12-9-23.54-18.47-34-29.22C86,530.83,79.23,523.57,72.89,516a271.86,271.86,0,0,1-18-23.55c-6.58-9.88-12.51-20.22-18.33-30.58A216,216,0,0,1,19.39,423c-2.85-8.72-5.93-17.39-8.18-26.27-2.75-10.88-5-21.9-7-32.93-1.31-7.22-2-14.56-2.64-21.88C.85,332.64.48,323.35,0,315.09ZM210.83,79.56l-.83-.63a28,28,0,0,1-2.58,1.51A251.64,251.64,0,0,0,166.3,104.1c-4.1,2.89-6.32,2.29-9.16-1.77q-4.75-6.81-9.7-13.47c-1.75-2.37-3.74-2.72-5.95-.87-6.78,5.7-13.84,11.14-20.1,17.37-9.13,9.1-18.21,18.37-26.31,28.36a390.41,390.41,0,0,0-24.45,34.06C65,176.5,60.59,186,55.78,195.27c-1,1.91-1.32,3.87,1.69,5,6.35,2.41,12.51,5.32,18.85,7.77,3,1.15,3.19,3.1,2.34,5.53-.61,1.76-1.78,3.33-2.37,5.1-3.72,11.13-7.8,22.17-10.86,33.48a190.07,190.07,0,0,0-5.57,28.75C58.57,292.54,58.22,304.3,58,316a190.89,190.89,0,0,0,4.37,46.51c1.56,6.87,2.54,13.92,4.64,20.61a291,291,0,0,0,10.78,29.72,246,246,0,0,0,15.1,29.38c7.25,11.84,15.15,23.33,23.44,34.47a219.73,219.73,0,0,0,30.23,32.71c13.77,12.3,28.73,22.71,46,29.39a94.08,94.08,0,0,0,22.06,6c11.51,1.45,23.2,1.41,34.42-2.59,7-2.51,14.27-4.7,21-7.95,14-6.8,26.13-16.41,37.45-27a283.83,283.83,0,0,0,31.42-34.59c2.88-3.76,5.55-7.68,8.87-12.29-3.9-.68-6.92-1.19-9.94-1.74-9.41-1.73-18.82-3.42-28.21-5.24-8.84-1.72-17.72-3.33-26.48-5.44-12.71-3.06-25.35-6.45-38-9.84-6.16-1.65-12.29-3.43-18.32-5.49-10.3-3.51-20.56-7.15-30.74-11-8.27-3.13-16.51-6.4-24.57-10-9.23-4.15-18.48-8.35-27.31-13.27-13.94-7.77-27.65-16-41.23-24.36-7.26-4.48-14.11-9.63-21-14.65-3.58-2.61-3.57-4.34-.69-7.73,2.15-2.54,4.32-5.06,6.37-7.68,4.3-5.53,8.48-11.16,12.81-16.67,1.74-2.21,3.85-3.32,6.47-1.07.94.81,2,1.45,3,2.19,5.83,4.29,11.43,9,17.53,12.81,9.8,6.18,19.82,12,30,17.64,8.47,4.7,17.25,8.84,25.89,13.23l.94-.7c-.31-1.73-.71-3.46-.91-5.2-1.21-10.35-2.52-20.69-3.51-31.06-1.27-13.32-3-26.67-3.21-40-.3-22.49.36-45,.85-67.5.17-7.91.93-15.8,1.57-23.69.34-4.2.79-8.41,1.53-12.55,1.66-9.29,3.52-18.53,5.31-27.79,1.07-5.48,1.87-11,3.27-16.42,2.46-9.43,5-18.83,8-28.11,3.23-10.12,7-20.09,10.49-30.12Zm8.73,246.87c.32,2.1.63,3.81.86,5.54,1.15,8.92,2.17,17.87,3.46,26.77,1.14,7.91,2.63,15.78,3.85,23.68,1.13,7.33,2.92,9.39,10.25,11.35,1,.27,2,.62,3,.93,8,2.48,16,5.12,24.11,7.37,6.26,1.73,12.65,3,19,4.4,12.11,2.68,24.19,5.6,36.38,7.86,10.66,2,21.46,3.16,32.19,4.74,4.46.65,8.89,1.6,13.37,2.08,3.06.33,6.44,1,8.72-2.13a43.21,43.21,0,0,0,3.53-5.16C383.6,404,389,394.14,394,384.1q10.61-21.36,20.63-43c4.39-9.43,8.14-19.16,12.59-28.56,3.2-6.74,2.26-12.47-2.33-18.08-5.78-7-11.21-14.39-17.09-21.35-9.79-11.62-19.48-23.36-29.85-34.46-11-11.74-22.64-22.85-34.17-34.07a7.31,7.31,0,0,0-5.38-1.93,56.68,56.68,0,0,0-10.83,3.11c-10.52,3.9-21,7.85-31.43,12-7.58,3-15,6.37-22.5,9.62-5.57,2.43-11.18,4.79-16.64,7.45-9.92,4.83-19.78,9.81-29.6,14.85a35.77,35.77,0,0,0-7.08,4.62,12.37,12.37,0,0,0-3.4,13.78c17.93-7,33.35-4.49,44.11,12.82a30.05,30.05,0,0,1-1.93,34.38C249.08,327.73,237.56,331.42,219.56,326.43ZM545.05,482.1a6.43,6.43,0,0,0,1-.63,283.6,283.6,0,0,0,30.41-53.42,288.17,288.17,0,0,0,11.36-31.75c3.13-10.3,5.64-20.81,7.77-31.36,1.62-8,2.34-16.26,3.27-24.43,2.14-18.87,1.53-37.76-.19-56.62-.37-4-.76-8-1.52-11.94q-2.39-12.17-5.21-24.25c-1.42-6-2.91-12.06-4.86-17.93-2.83-8.52-5.88-17-9.26-25.3-2.32-5.72-5.29-11.31-11.87-13.26-5-1.47-10.07-2.76-15.18-3.77-8.41-1.65-16.86-3.17-25.34-4.45-12.29-1.86-24.57-3.91-36.93-5-15.71-1.43-31.42,0-47.07,1.68-3.67.39-7.34.81-11,1.41-6.51,1.08-13,2.38-19.49,3.45-3.94.65-7.95.87-11.87,1.61-3.76.7-7.45,1.82-11.75,2.91a29.74,29.74,0,0,0,1.91,2.54c3.64,3.75,7.45,7.34,10.95,11.22Q411.26,215,422,227.46c6.62,7.65,13.24,15.29,19.53,23.19s12.41,16,18.16,24.27c7.81,11.28,15.42,22.7,22.69,34.33,5.42,8.66,10.43,17.61,15.14,26.68,5.81,11.18,11.19,22.59,16.6,34,1.92,4,3.38,8.31,5,12.5,2,5.24,4.26,10.42,6,15.77q4,12.57,7.4,25.34c2.76,10.23,5.5,20.49,7.74,30.84,1.47,6.75,2,13.71,3,20.56C543.65,477.27,544.41,479.57,545.05,482.1ZM545,147.83a8,8,0,0,0-.84-2.59c-6.88-8.31-13.61-16.76-20.81-24.78a220.19,220.19,0,0,0-32.22-29.64c-8.37-6.24-16.92-12.26-25.68-17.95a248.5,248.5,0,0,0-39.79-20.66c-8.76-3.66-17.71-6.93-26.72-10-5.93-2-12.09-3.36-18.18-4.88-5-1.25-10-2.47-15-3.44-4.53-.87-9.14-1.38-13.71-2.07-3.22-.49-5.2,1.52-5.6,4.55-.71,5.31-1.06,10.66-1.51,16-.37,4.41-1,5-5.47,4.82-9.14-.39-18.33-1.48-27.43-1-12.78.69-25.78.29-38.24,4-3.15.93-6.68,2.61-8.66,5a70.31,70.31,0,0,0-8.65,14.29c-4.29,9.13-8.2,18.46-11.94,27.83-2.81,7-5.29,14.25-7.56,21.5-2.77,8.88-5.26,17.86-7.7,26.84-1.32,4.83-2.36,9.73-3.38,14.62-.71,3.39-1.18,6.82-1.76,10.23-.46,2.68-.91,5.36-1.4,8-.94,5.15-2.07,10.28-2.78,15.47-.34,2.5,1.31,3.22,3.63,2.08,9.08-4.48,18.12-9,27.29-13.3,6.43-3,13-5.71,19.58-8.39,10.26-4.18,20.51-8.4,30.88-12.27,7.54-2.82,15.25-5.2,22.94-7.59,8.48-2.63,17-5.19,25.58-7.5,7.36-2,14.78-3.85,22.26-5.26,11.88-2.23,23.83-4.08,35.76-6,4.05-.65,8.15-1,12.23-1.42,9-.9,18-2.24,27.06-2.51,21.43-.63,42.89-.84,64.25,1.53C522.41,144.65,533.41,146.3,545,147.83ZM234.28,586.63l-.49.69c.72.57,1.36,1.43,2.17,1.65,7.23,2,14.4,4.36,21.76,5.66,12.62,2.22,25.35,3.77,38,5.58a31.09,31.09,0,0,0,3.48.19c17.86.4,35.7.37,53.38-2.67,10.67-1.84,21.41-3.41,31.93-5.89a224.05,224.05,0,0,0,25.32-8c9.41-3.46,18.83-7.06,27.85-11.4a306.5,306.5,0,0,0,27.85-15.35,237.37,237.37,0,0,0,36.05-26.75c5.17-4.73,8.79-9.88,5.86-17.35a11.84,11.84,0,0,1-.33-3.13c-.8-8.2-1.46-16.42-2.45-24.59-.81-6.67-1.93-13.31-3.07-19.94-.79-4.57-1.63-9.15-2.83-13.62-2.13-7.95-4.29-15.91-6.89-23.71-4.12-12.4-8.28-24.82-13.07-37-3.88-9.86-8.73-19.35-13.14-29-1.86-4.09-3.62-8.23-5.63-12.25a3.76,3.76,0,0,0-2.65-1.72c-.62-.06-1.6,1.07-2,1.87-1,2.07-1.75,4.3-2.76,6.38Q441.12,380,429.5,403.65c-3.26,6.63-6.31,13.37-10,19.76-7,12.19-14.1,24.34-21.71,36.16s-15.25,23.32-23.74,34.32a387.22,387.22,0,0,1-28,32.58,322.83,322.83,0,0,1-30.72,27.84,141.1,141.1,0,0,1-32.71,19.54c-7.3,3.11-14.88,5.63-22.46,8a118.88,118.88,0,0,1-14.42,3.23C242,585.8,238.12,586.13,234.28,586.63Z"/><path class="cls-2" d="M219.56,326.43c18,5,29.52,1.3,39.53-11.14A30.05,30.05,0,0,0,261,280.91c-10.76-17.31-26.18-19.78-44.11-12.82a12.37,12.37,0,0,1,3.4-13.78,35.77,35.77,0,0,1,7.08-4.62c9.82-5,19.68-10,29.6-14.85,5.46-2.66,11.07-5,16.64-7.45,7.48-3.25,14.92-6.6,22.5-9.62,10.41-4.16,20.91-8.11,31.43-12a56.68,56.68,0,0,1,10.83-3.11,7.31,7.31,0,0,1,5.38,1.93c11.53,11.22,23.19,22.33,34.17,34.07,10.37,11.1,20.06,22.84,29.85,34.46,5.88,7,11.31,14.3,17.09,21.35,4.59,5.61,5.53,11.34,2.33,18.08-4.45,9.4-8.2,19.13-12.59,28.56q-10.06,21.61-20.63,43c-5,10-10.39,19.87-15.69,29.76a43.21,43.21,0,0,1-3.53,5.16c-2.28,3.12-5.66,2.46-8.72,2.13-4.48-.48-8.91-1.43-13.37-2.08-10.73-1.58-21.53-2.76-32.19-4.74-12.19-2.26-24.27-5.18-36.38-7.86-6.35-1.4-12.74-2.67-19-4.4C257,399.82,249,397.18,241,394.7c-1-.31-2-.66-3-.93-7.33-2-9.12-4-10.25-11.35-1.22-7.9-2.71-15.77-3.85-23.68-1.29-8.9-2.31-17.85-3.46-26.77C220.19,330.24,219.88,328.53,219.56,326.43Z"/></svg>