<svg id="Layer_1" data-name="Layer 1" xmlns="http://www.w3.org/2000/svg" viewBox="0 0 648.76 648.92"><defs><style>.cls-1{fill:#fff;}.cls-2{fill:#8ec343;}</style></defs><path class="cls-1" d="M0,325.06c.64-12.31.6-23.6,2-34.71,1.73-14.09,4.38-28.09,7.05-42a154.13,154.13,0,0,1,5.49-20.58c3.46-10.18,7.3-20.25,11.32-30.23,3-7.54,6.3-15,10-22.26,3.49-6.87,7.37-13.58,11.53-20.07,6.36-9.91,12.54-20,19.83-29.23,8.85-11.18,18.59-21.69,28.3-32.16a193.85,193.85,0,0,1,18-17.1c7.93-6.61,16.14-12.93,24.65-18.77,9.65-6.61,19.62-12.78,29.72-18.69a191.71,191.71,0,0,1,19.57-9.61Q201.3,23.49,215.48,18c4.93-1.89,10.14-3.1,15.23-4.58,5.67-1.63,11.32-3.41,17-4.78q9.63-2.29,19.4-4c8.65-1.46,17.32-2.83,26-3.85A136.29,136.29,0,0,1,309.85,0c14.7.09,29.42,0,44.08.78,8.52.44,17,2.35,25.44,3.62,2.9.44,5.82.82,8.68,1.45,9,2,18,3.62,26.8,6.16,9.11,2.62,18.07,5.87,26.91,9.33,9.2,3.6,18.32,7.51,27.23,11.79a251,251,0,0,1,41.34,24.59c10.18,7.57,20.46,15.09,30,23.42,8.25,7.2,15.72,15.33,23.2,23.36a217.08,217.08,0,0,1,17.07,20.06c7.92,10.86,15.67,21.91,22.57,33.44,6.37,10.66,11.51,22.05,17.2,33.12,6.72,13.1,11,27.11,15.29,41.11a236.41,236.41,0,0,1,6,25.55c1.84,9.89,2.85,19.92,4.54,29.84,2.71,15.89,2.71,31.91,2.36,47.91-.18,8.22-1.52,16.42-2.34,24.63-.47,4.65-.77,9.31-1.48,13.92-1,6.85-2.28,13.67-3.63,20.46-1.08,5.42-2.25,10.83-3.72,16.15-1.8,6.52-3.71,13-6,19.38-3,8.17-6.19,16.25-9.58,24.25-6.58,15.51-14.17,30.53-23.64,44.47q-11.88,17.47-24.9,34.16a183.09,183.09,0,0,1-16.89,18.25c-8.41,8.19-16.9,16.37-25.93,23.86a318.47,318.47,0,0,1-27.91,20.73c-9.77,6.46-20,12.22-30.33,17.84a193.41,193.41,0,0,1-20.81,9.66c-9.42,3.78-19,7.22-28.61,10.44-6.42,2.15-13,3.71-19.59,5.44q-8,2.1-16.09,4c-2.84.66-5.75,1.08-8.64,1.52C357.8,647.76,337,649.58,316,648.7c-11.42-.48-22.86-1.2-34.21-2.54-9.21-1.1-18.34-3.1-27.43-5-8.44-1.8-16.93-3.6-25.14-6.23-10.12-3.25-20.1-7-29.9-11.21-10.22-4.33-20.34-9-30.15-14.18a288.63,288.63,0,0,1-38.37-24.41c-12.38-9.28-24.29-19.05-35-30.15-7.09-7.32-14-14.81-20.57-22.62A279.57,279.57,0,0,1,56.58,508c-6.78-10.2-12.9-20.86-18.9-31.55A222.82,222.82,0,0,1,20,436.36c-2.93-9-6.12-17.95-8.44-27.11-2.83-11.21-5.11-22.58-7.18-34-1.34-7.44-2.1-15-2.72-22.57C.88,343.16.49,333.58,0,325.06Zm217.5-243-.86-.64A30.81,30.81,0,0,1,214,83a259.26,259.26,0,0,0-42.42,24.4c-4.23,3-6.52,2.37-9.45-1.83q-4.91-7-10-13.89c-1.8-2.44-3.85-2.8-6.13-.89-7,5.87-14.28,11.49-20.74,17.92-9.42,9.38-18.78,18.94-27.15,29.25a405.77,405.77,0,0,0-25.22,35.14c-5.81,9-10.36,18.82-15.31,28.36-1,2-1.37,4,1.74,5.16,6.55,2.49,12.91,5.49,19.44,8,3,1.19,3.29,3.2,2.42,5.71-.63,1.81-1.83,3.43-2.44,5.26-3.84,11.48-8,22.86-11.21,34.53a195.92,195.92,0,0,0-5.75,29.66c-1.33,12-1.69,24.13-2,36.21a196.54,196.54,0,0,0,4.51,48c1.6,7.09,2.61,14.35,4.77,21.26A300.41,300.41,0,0,0,80.21,425.9a254.24,254.24,0,0,0,15.58,30.32c7.47,12.21,15.63,24.06,24.17,35.56a226.94,226.94,0,0,0,31.2,33.74c14.2,12.69,29.64,23.43,47.42,30.32A97.4,97.4,0,0,0,221.33,562c11.88,1.5,23.94,1.45,35.51-2.67,7.27-2.59,14.73-4.85,21.64-8.21,14.43-7,27-16.92,38.63-27.83a292.28,292.28,0,0,0,32.41-35.68c3-3.88,5.73-7.92,9.16-12.68-4-.7-7.15-1.22-10.26-1.8-9.7-1.78-19.41-3.52-29.1-5.4C310.2,466,301,464.28,292,462.11c-13.12-3.15-26.16-6.65-39.2-10.15-6.35-1.71-12.68-3.55-18.9-5.67-10.62-3.62-21.21-7.37-31.71-11.33-8.53-3.23-17-6.61-25.35-10.36-9.52-4.28-19.06-8.62-28.17-13.7-14.38-8-28.52-16.47-42.53-25.12-7.49-4.62-14.57-9.93-21.69-15.12-3.7-2.69-3.68-4.48-.71-8,2.22-2.62,4.46-5.22,6.56-7.92,4.45-5.71,8.76-11.51,13.22-17.2,1.8-2.28,4-3.43,6.68-1.11,1,.84,2.09,1.5,3.12,2.27,6,4.42,11.79,9.23,18.09,13.21,10.11,6.37,20.45,12.41,30.9,18.2,8.74,4.84,17.8,9.12,26.71,13.65l1-.72c-.32-1.79-.73-3.57-.94-5.38-1.24-10.67-2.6-21.34-3.62-32-1.31-13.75-3.12-27.51-3.3-41.29-.32-23.2.37-46.42.87-69.64.17-8.15,1-16.3,1.62-24.43.35-4.34.81-8.68,1.58-13,1.71-9.58,3.63-19.12,5.48-28.67,1.1-5.66,1.93-11.38,3.38-16.94,2.52-9.73,5.19-19.43,8.25-29,3.34-10.45,7.19-20.73,10.82-31.08Zm9,254.69c.34,2.16.66,3.93.89,5.71,1.19,9.2,2.24,18.43,3.57,27.62,1.18,8.16,2.71,16.27,4,24.43,1.17,7.56,3,9.69,10.58,11.7,1,.28,2.07.65,3.11,1,8.28,2.55,16.52,5.28,24.87,7.59,6.46,1.79,13.05,3.1,19.6,4.55,12.5,2.76,25,5.77,37.54,8.11,11,2,22.13,3.25,33.2,4.88,4.6.68,9.17,1.66,13.8,2.15,3.16.34,6.64,1,9-2.2a46.45,46.45,0,0,0,3.64-5.33c5.46-10.19,11-20.33,16.18-30.69q10.94-22,21.28-44.36c4.53-9.73,8.4-19.77,13-29.46,3.29-6.95,2.32-12.87-2.42-18.66-5.95-7.27-11.56-14.84-17.62-22-10.11-12-20.1-24.09-30.79-35.54-11.33-12.12-23.37-23.57-35.25-35.15a7.6,7.6,0,0,0-5.56-2,58.06,58.06,0,0,0-11.17,3.21c-10.85,4-21.68,8.1-32.43,12.38-7.81,3.12-15.49,6.57-23.2,9.93-5.75,2.51-11.53,4.95-17.17,7.69-10.24,5-20.41,10.12-30.54,15.32a37,37,0,0,0-7.3,4.76,12.76,12.76,0,0,0-3.51,14.22c18.5-7.18,34.41-4.63,45.51,13.22a31,31,0,0,1-2,35.47C257,338.1,245.08,341.9,226.5,336.76ZM562.29,497.35c.67-.42.91-.49,1-.65a293.6,293.6,0,0,0,31.38-55.11,301.64,301.64,0,0,0,11.71-32.76c3.23-10.62,5.82-21.47,8-32.35,1.67-8.29,2.42-16.78,3.37-25.2,2.2-19.47,1.58-38.95-.2-58.41A123.8,123.8,0,0,0,616,280.55q-2.44-12.56-5.37-25c-1.46-6.22-3-12.45-5-18.51-2.92-8.79-6.07-17.52-9.55-26.09-2.4-5.9-5.46-11.67-12.25-13.68-5.16-1.52-10.39-2.85-15.66-3.89-8.68-1.71-17.4-3.28-26.14-4.6-12.68-1.91-25.35-4-38.1-5.19-16.21-1.47-32.41,0-48.55,1.73-3.79.4-7.58.83-11.34,1.45-6.71,1.12-13.39,2.46-20.1,3.56-4.06.67-8.2.91-12.24,1.66s-7.69,1.89-12.13,3a28.14,28.14,0,0,0,2,2.61c3.76,3.87,7.68,7.58,11.3,11.58q11.4,12.62,22.52,25.48c6.82,7.88,13.66,15.76,20.14,23.92s12.81,16.47,18.74,25c8.06,11.63,15.91,23.41,23.41,35.41,5.59,8.94,10.76,18.17,15.62,27.53,6,11.53,11.54,23.3,17.12,35.05,2,4.17,3.49,8.58,5.17,12.89,2.09,5.41,4.39,10.76,6.15,16.27,2.76,8.65,5.28,17.38,7.64,26.14,2.84,10.56,5.67,21.14,8,31.82,1.51,7,2,14.15,3.12,21.21C560.84,492.37,561.63,494.73,562.29,497.35Zm-.1-344.84a8.44,8.44,0,0,0-.86-2.68c-7.1-8.57-14-17.29-21.47-25.56a227.73,227.73,0,0,0-33.24-30.58C498,87.25,489.16,81,480.13,75.18a256.37,256.37,0,0,0-41-21.32c-9-3.77-18.28-7.15-27.57-10.29-6.12-2.07-12.48-3.46-18.76-5-5.14-1.29-10.3-2.54-15.5-3.55-4.68-.9-9.43-1.42-14.14-2.13-3.33-.5-5.37,1.56-5.79,4.69-.73,5.47-1.09,11-1.55,16.5-.39,4.55-1.07,5.17-5.64,5-9.44-.41-18.91-1.53-28.3-1-13.19.71-26.6.3-39.45,4.07-3.25,1-6.89,2.69-8.94,5.22A72,72,0,0,0,264.53,82c-4.42,9.43-8.46,19-12.32,28.72-2.9,7.27-5.46,14.7-7.79,22.17-2.87,9.17-5.43,18.43-7.95,27.7-1.36,5-2.43,10-3.49,15.08-.73,3.49-1.22,7-1.82,10.55-.47,2.77-.93,5.53-1.43,8.29-1,5.32-2.14,10.61-2.88,16-.35,2.58,1.36,3.32,3.75,2.14,9.36-4.61,18.69-9.3,28.15-13.72,6.64-3.09,13.42-5.88,20.2-8.65,10.59-4.31,21.16-8.66,31.86-12.66,7.78-2.9,15.73-5.36,23.66-7.82,8.76-2.72,17.54-5.36,26.39-7.74,7.6-2,15.25-4,23-5.43,12.25-2.3,24.58-4.21,36.89-6.18,4.18-.66,8.4-1.05,12.61-1.47,9.3-.92,18.59-2.3,27.92-2.58,22.11-.65,44.25-.87,66.29,1.58C538.93,149.22,550.28,150.93,562.19,152.51ZM241.69,605.18l-.51.72c.74.58,1.4,1.47,2.24,1.7,7.46,2,14.86,4.49,22.45,5.83,13,2.3,26.15,3.9,39.24,5.76a30.9,30.9,0,0,0,3.6.2c18.42.41,36.82.38,55.06-2.76,11-1.89,22.09-3.51,33-6.08a227.91,227.91,0,0,0,26.11-8.27c9.71-3.57,19.43-7.28,28.74-11.76a315.65,315.65,0,0,0,28.72-15.83,245.29,245.29,0,0,0,37.2-27.6c5.33-4.88,9.06-10.19,6-17.89a12.25,12.25,0,0,1-.34-3.24c-.83-8.46-1.51-16.93-2.53-25.37-.84-6.88-2-13.72-3.17-20.56-.81-4.71-1.68-9.44-2.92-14.06-2.19-8.2-4.42-16.4-7.1-24.45-4.26-12.8-8.54-25.61-13.48-38.15-4-10.18-9-20-13.56-29.93-1.92-4.22-3.74-8.49-5.81-12.64a3.91,3.91,0,0,0-2.73-1.78c-.64-.06-1.66,1.11-2.08,1.94-1.07,2.13-1.8,4.43-2.85,6.58q-11.9,24.45-23.88,48.88c-3.36,6.83-6.51,13.79-10.3,20.38-7.23,12.57-14.55,25.11-22.39,37.3s-15.74,24.06-24.5,35.41a397.91,397.91,0,0,1-28.84,33.61,335.42,335.42,0,0,1-31.69,28.72A145.86,145.86,0,0,1,291.61,592c-7.53,3.21-15.35,5.81-23.17,8.27a124.86,124.86,0,0,1-14.87,3.33C249.65,604.32,245.65,604.67,241.69,605.18Z"/><path class="cls-2" d="M226.5,336.76c18.58,5.14,30.45,1.34,40.79-11.5a31,31,0,0,0,2-35.47c-11.1-17.85-27-20.4-45.51-13.22a12.76,12.76,0,0,1,3.51-14.22,37,37,0,0,1,7.3-4.76c10.13-5.2,20.3-10.34,30.54-15.32,5.64-2.74,11.42-5.18,17.17-7.69,7.71-3.36,15.39-6.81,23.2-9.93,10.75-4.28,21.58-8.36,32.43-12.38a58.06,58.06,0,0,1,11.17-3.21,7.6,7.6,0,0,1,5.56,2c11.88,11.58,23.92,23,35.25,35.15,10.69,11.45,20.68,23.56,30.79,35.54,6.06,7.19,11.67,14.76,17.62,22,4.74,5.79,5.71,11.71,2.42,18.66-4.6,9.69-8.47,19.73-13,29.46q-10.38,22.31-21.28,44.36c-5.14,10.36-10.72,20.5-16.18,30.69a46.45,46.45,0,0,1-3.64,5.33c-2.36,3.22-5.84,2.54-9,2.2-4.63-.49-9.2-1.47-13.8-2.15-11.07-1.63-22.21-2.85-33.2-4.88-12.58-2.34-25-5.35-37.54-8.11-6.55-1.45-13.14-2.76-19.6-4.55-8.35-2.31-16.59-5-24.87-7.59-1-.32-2.07-.69-3.11-1-7.57-2-9.41-4.14-10.58-11.7-1.26-8.16-2.79-16.27-4-24.43-1.33-9.19-2.38-18.42-3.57-27.62C227.16,340.69,226.84,338.92,226.5,336.76Z"/></svg>